<svg xmlns="http://www.w3.org/2000/svg" xmlns:xlink="http://www.w3.org/1999/xlink" xmlns:lucid="lucid" width="1096" height="1360"><g transform="translate(-380 0)" lucid:page-tab-id="0_0"><path d="M420 270.5h180v70H420z" stroke="#666" fill="#a5a7aa"/><use xlink:href="#a" transform="matrix(1,0,0,1,440,270.5) translate(43.34444444444445 40.599999999999994)"/><path d="M453.3 76c0-4.42 3.58-8 8-8h836.75c4.42 0 8 3.58 8 8v25.16c0 4.4-3.58 8-8 8H461.3c-4.42 0-8-3.6-8-8z" stroke="#000" stroke-opacity="0" stroke-width="2" fill="#fff" fill-opacity="0"/><use xlink:href="#b" transform="matrix(1,0,0,1,457.29721476432996,72) translate(371.3624691358025 25.782777777777778)"/><path d="M623.18 107.8h520.9M623.2 107.8h-1.02M1144.06 107.8h1.03" stroke="#a9afb8" stroke-width="2" fill="none"/><path d="M453.3 117.16c0-4.42 3.58-8 8-8H1299c4.42 0 8 3.58 8 8V120c0 4.42-3.58 8-8 8H461.3c-4.42 0-8-3.58-8-8z" stroke="#000" stroke-opacity="0" stroke-width="2" fill="#fff" fill-opacity="0"/><use xlink:href="#c" transform="matrix(1,0,0,1,457.2972147643304,113.15522395689881) translate(334.06483539094654 14.917037037037037)"/><use xlink:href="#d" transform="matrix(1,0,0,1,457.2972147643304,113.15522395689881) translate(373.96267489711937 14.917037037037037)"/><use xlink:href="#e" transform="matrix(1,0,0,1,457.2972147643304,113.15522395689881) translate(416.3674074074074 14.917037037037037)"/><use xlink:href="#f" transform="matrix(1,0,0,1,457.2972147643304,113.15522395689881) translate(428.81689300411523 14.917037037037037)"/><use xlink:href="#g" transform="matrix(1,0,0,1,457.2972147643304,113.15522395689881) translate(460.2167901234568 14.917037037037037)"/><use xlink:href="#h" transform="matrix(1,0,0,1,457.2972147643304,113.15522395689881) translate(484.56339506172844 14.917037037037037)"/><path d="M1200 690h240v60h-240z" fill="#eff0f0"/><path d="M1440 690h-240v60h240M1248 690v60" stroke="#666" fill="none"/><use xlink:href="#i" transform="matrix(1,0,0,1,1212,702) translate(-6.35 23.6)"/><use xlink:href="#j" transform="matrix(1,0,0,1,1260,702) translate(42.34444444444445 23.6)"/><path d="M1200.3 1000h240v60h-240z" fill="#eff0f0"/><path d="M1440.3 1000h-240v60h240M1248.3 1000v60" stroke="#666" fill="none"/><use xlink:href="#k" transform="matrix(1,0,0,1,1212.301323957974,1012) translate(-6.35 23.6)"/><use xlink:href="#l" transform="matrix(1,0,0,1,1260.301323957974,1012) translate(47.150000000000006 23.6)"/><path d="M1200 1221h240v60h-240z" fill="#eff0f0"/><path d="M1440 1221h-240v60h240M1248 1221v60" stroke="#666" fill="none"/><use xlink:href="#m" transform="matrix(1,0,0,1,1212,1233) translate(-6.35 23.6)"/><use xlink:href="#n" transform="matrix(1,0,0,1,1260,1233) translate(47.34444444444445 23.6)"/><path d="M988 240.5c6.63 0 12 5.37 12 12v96c0 6.63-5.37 12-12 12H812c-6.63 0-12-5.37-12-12v-96c0-6.63 5.37-12 12-12z" stroke="#666" fill="#d7e9ff"/><path d="M800 293.5h200" stroke="#666" fill="none"/><use xlink:href="#o" transform="matrix(1,0,0,1,820,240.5) translate(68.84444444444445 32.1)"/><use xlink:href="#p" transform="matrix(1,0,0,1,820,303.5) translate(7.37222222222222 29.1)"/><use xlink:href="#q" transform="matrix(1,0,0,1,820,303.5) translate(55.03888888888889 29.1)"/><path d="M675.05 288.9H601v-1h74.05zm108.07-5h-58.17v-1h58.17zM601 288.9h-.5v-1h.5zM797.88 283.4L783.62 288v-9.27z" fill="#333"/><path d="M799.5 283.4l-16.38 5.3v-10.64zm-15.38 3.93l12.14-3.94-12.14-3.96z" fill="#333"/><use xlink:href="#r" transform="matrix(1,0,0,1,675.05,275.0873967567855) translate(0.004999999999999005 14.4)"/><path d="M672.02 328.5H601v-1h71.02zm111.1-5h-55.14v-1h55.14zM601 328.5h-.5v-1h.5zM797.88 323l-14.26 4.62v-9.27z" fill="#333"/><path d="M799.5 323l-16.38 5.3v-10.64zm-15.38 3.93l12.14-3.94-12.14-3.96z" fill="#333"/><use xlink:href="#s" transform="matrix(1,0,0,1,672.025,314.68532499081596) translate(0.004999999999999005 14.4)"/><path d="M834.52 199.92l3 1.24 2.6 2 2 2.6 1.24 3 .42 3.2v27.54h-1v-27.47l-.4-3-1.14-2.77-1.83-2.4-2.38-1.82-2.76-1.14-3.02-.4H574.62l-3 .4-2.77 1.14-2.4 1.83-1.82 2.4-1.14 2.75-.4 3v41.6h-1v-41.65l.4-3.2 1.25-3 2-2.6 2.6-2 3-1.25 3.2-.42h256.76z" fill="#333"/><path d="M843.78 240h-1v-.5h1zM562.6 268.38l-4.64-14.26h9.27z" fill="#333"/><path d="M562.6 270l-5.33-16.38h10.64zm-3.96-15.38l3.95 12.14 3.94-12.14z" fill="#333"/><use xlink:href="#t" transform="matrix(1,0,0,1,581.1671727946643,174.39999999999998) translate(0.0049999999999954525 14.4)"/><use xlink:href="#u" transform="matrix(1,0,0,1,581.1671727946643,174.39999999999998) translate(58.905 14.4)"/><use xlink:href="#v" transform="matrix(1,0,0,1,581.1671727946643,174.39999999999998) translate(149.805 14.4)"/><use xlink:href="#w" transform="matrix(1,0,0,1,581.1671727946643,174.39999999999998) translate(208.705 14.4)"/><path d="M565.3 388.97l.4 3 1.13 2.77 1.83 2.4 2.4 1.82 2.75 1.14 3.02.4h251.12l3.02-.4 2.76-1.14 2.4-1.83 1.82-2.4 1.14-2.75.4-3V361.5h1v27.53l-.42 3.2-1.25 3-1.98 2.6-2.6 2-3 1.25-3.2.42H576.75l-3.2-.42-3-1.24-2.6-2-2-2.6-1.25-3-.4-3.2v-31.66h1z" fill="#333"/><path d="M840.48 361.5h-1v-.5h1zM569.43 356.88h-9.27l4.63-14.26z" fill="#333"/><path d="M570.1 357.38h-10.63L564.8 341zm-9.26-1h7.9l-3.95-12.14z" fill="#333"/><use xlink:href="#t" transform="matrix(1,0,0,1,609.6522514454715,405) translate(0.0049999999999954525 14.4)"/><use xlink:href="#x" transform="matrix(1,0,0,1,609.6522514454715,405) translate(58.905 14.4)"/><use xlink:href="#y" transform="matrix(1,0,0,1,609.6522514454715,405) translate(115.805 14.4)"/><use xlink:href="#z" transform="matrix(1,0,0,1,609.6522514454715,405) translate(158.705 14.4)"/><path d="M960.75 388.97l.4 3 1.14 2.77 1.82 2.4 2.4 1.82 2.75 1.14 3 .4h55.62v1H972.2l-3.2-.42-3-1.24-2.6-2-2-2.6-1.25-3-.42-3.2V361.5h1zm278.3.06l-.44 3.2-1.23 3-2 2.6-2.6 2-3 1.25-3.2.42h-65.93v-1h65.86l3.02-.4 2.75-1.14 2.4-1.83 1.83-2.4 1.14-2.75.4-3v-41.6h1zM960.75 361.5h-1v-.5h1zM1243.17 346.88h-9.27l4.64-14.26z" fill="#333"/><path d="M1243.86 347.38h-10.65l5.34-16.38zm-9.27-1h7.88l-3.94-12.14z" fill="#333"/><use xlink:href="#A" transform="matrix(1,0,0,1,1027.8858757037278,390.2) translate(0.0049999999999954525 14.4)"/><use xlink:href="#B" transform="matrix(1,0,0,1,1027.8858757037278,390.2) translate(42.905 14.4)"/><path d="M1200.3 270.5h240v60h-240z" fill="#eff0f0"/><path d="M1440.3 270.5h-240v60h240M1248.3 270.5v60" stroke="#666" fill="none"/><use xlink:href="#C" transform="matrix(1,0,0,1,1212.301323957974,282.5) translate(0.5249999999999986 21.6)"/><use xlink:href="#D" transform="matrix(1,0,0,1,1260.301323957974,282.5) translate(60.55 21.6)"/><path d="M988 660c6.63 0 12 5.37 12 12v96c0 6.63-5.37 12-12 12H812c-6.63 0-12-5.37-12-12v-96c0-6.63 5.37-12 12-12z" stroke="#666" fill="#d7e9ff"/><path d="M800 713h200" stroke="#666" fill="none"/><use xlink:href="#E" transform="matrix(1,0,0,1,820,660) translate(68.84444444444445 32.1)"/><use xlink:href="#F" transform="matrix(1,0,0,1,820,723) translate(43.34444444444445 19.2)"/><use xlink:href="#q" transform="matrix(1,0,0,1,820,723) translate(36.80555555555556 43.2)"/><path d="M642.6 730.5H601v-1h41.6zm140.52 0H757.4v-1h25.72zM601 730.5h-.5v-1h.5zM797.88 730l-14.26 4.64v-9.28z" fill="#333"/><path d="M799.5 730l-16.38 5.32v-10.64zm-15.38 3.95l12.14-3.95-12.14-3.95z" fill="#333"/><use xlink:href="#G" transform="matrix(1,0,0,1,642.6,719.2) translate(0.005000000000002558 14.4)"/><use xlink:href="#H" transform="matrix(1,0,0,1,642.6,719.2) translate(58.90500000000001 14.4)"/><path d="M1025 495.75h-93.42l-3 .4-2.77 1.14-2.38 1.82-1.83 2.4-1.15 2.75-.4 3v135.85h-1v-135.9l.42-3.2 1.25-3 2-2.6 2.6-2 3-1.25 3.2-.42H1025zm295.62-12.47l-.42 3.2-1.24 3-2 2.6-2.6 2-3 1.25-3.2.42h-93.47v-1h93.4l3-.4 2.76-1.14 2.4-1.82 1.83-2.4 1.13-2.75.4-3V331.5h1zM1320.62 331.5h-1v-.5h1zM919.55 657.88l-4.63-14.26h9.27z" fill="#333"/><path d="M919.55 659.5l-5.32-16.38h10.65zm-3.95-15.38l3.95 12.14 3.95-12.14z" fill="#333"/><use xlink:href="#I" transform="matrix(1,0,0,1,1024.9879159979319,484.45) translate(0.0049999999999954525 14.4)"/><use xlink:href="#J" transform="matrix(1,0,0,1,1024.9879159979319,484.45) translate(62.955 14.4)"/><use xlink:href="#K" transform="matrix(1,0,0,1,1024.9879159979319,484.45) translate(114.855 14.4)"/><use xlink:href="#H" transform="matrix(1,0,0,1,1024.9879159979319,484.45) translate(133.805 14.4)"/><path d="M645.83 674.47h-76.2l-3.03.4-2.75 1.14-2.4 1.84-1.83 2.4-1.14 2.75-.4 3v8h-1v-8.06l.43-3.22 1.25-3 2-2.6 2.6-2 3-1.23 3.2-.43h76.28zm137.3 0h-24.5v-1h24.5zM558.1 694.5h-1v-.5h1zM797.88 673.97l-14.26 4.63v-9.27z" fill="#333"/><path d="M799.5 673.97l-16.38 5.32v-10.65zm-15.38 3.95l12.14-3.95-12.14-3.95z" fill="#333"/><use xlink:href="#L" transform="matrix(1,0,0,1,645.8335599951805,663.1689235104569) translate(0.005000000000002558 14.4)"/><use xlink:href="#H" transform="matrix(1,0,0,1,645.8335599951805,663.1689235104569) translate(56.90500000000001 14.4)"/><path d="M420 695h180v70H420z" stroke="#666" fill="#a5a7aa"/><use xlink:href="#a" transform="matrix(1,0,0,1,440,695) translate(43.34444444444445 40.599999999999994)"/><path d="M626.86 580.5H494.82l-3 .4-2.77 1.14-2.4 1.83-1.82 2.4-1.14 2.75-.4 3v86.1h-1v-86.15l.4-3.2 1.26-3 2-2.6 2.6-2 3-1.25 3.2-.42h132.1zm243.24-.58l3 1.24 2.6 2 2 2.6 1.23 3 .42 3.2V659h-1v-66.97l-.4-3-1.13-2.77-1.84-2.4-2.4-1.82-2.74-1.14-3.02-.4h-89.2v-1h89.27zM879.35 659.5h-1v-.5h1zM482.8 692.88l-4.64-14.26h9.27z" fill="#333"/><path d="M482.8 694.5l-5.33-16.38h10.64zm-3.96-15.38l3.95 12.14 3.94-12.14z" fill="#333"/><use xlink:href="#M" transform="matrix(1,0,0,1,626.8585599951805,569.2) translate(0.0049999999999954525 14.4)"/><use xlink:href="#B" transform="matrix(1,0,0,1,626.8585599951805,569.2) translate(60.904999999999994 14.4)"/><path d="M1228.68 619.42l3 1.24 2.6 2 2 2.6 1.23 3 .44 3.2v41.66h-1v-41.6l-.4-3-1.14-2.76-1.84-2.4-2.4-1.82-2.74-1.14-3.02-.4h-36.18v-1h36.25zm-190.2.58h-66.2l-3 .4-2.77 1.14-2.38 1.83-1.83 2.4-1.16 2.75-.4 3V659h-1v-27.53l.43-3.2 1.24-3 2-2.6 2.6-2 3-1.25 3.22-.42h66.25zM960.75 659.5h-1v-.5h1zM1237.44 687.88l-4.64-14.26h9.27z" fill="#333"/><path d="M1237.44 689.5l-5.33-16.38h10.66zm-3.95-15.38l3.94 12.14 3.94-12.14z" fill="#333"/><use xlink:href="#M" transform="matrix(1,0,0,1,1038.4675084943513,608.7) translate(0.0049999999999954525 14.4)"/><use xlink:href="#B" transform="matrix(1,0,0,1,1038.4675084943513,608.7) translate(60.904999999999994 14.4)"/><path d="M1230.88 199.92l3 1.24 2.6 2 2 2.6 1.23 3 .44 3.2v57.54h-1v-57.47l-.4-3-1.14-2.77-1.84-2.4-2.4-1.82-2.74-1.14-3.02-.4h-71.36v-1h71.43zm-207.4.58h-51.2l-3 .4-2.77 1.14-2.38 1.83-1.83 2.4-1.16 2.75-.4 3v11.6h-1v-11.65l.43-3.2 1.24-3 2-2.6 2.6-2 3-1.25 3.22-.42h51.27zM1240.14 270h-1v-.5h1zM960.25 238.38l-4.64-14.26h9.3z" fill="#333"/><path d="M960.25 240l-5.32-16.38h10.64zm-3.95-15.38l3.95 12.14 3.95-12.14z" fill="#333"/><use xlink:href="#A" transform="matrix(1,0,0,1,1023.4934061137483,189.2) translate(0.0049999999999954525 14.4)"/><use xlink:href="#B" transform="matrix(1,0,0,1,1023.4934061137483,189.2) translate(42.905 14.4)"/><path d="M988.15 1079.5c6.63 0 12 5.37 12 12v96c0 6.63-5.37 12-12 12h-176c-6.63 0-12-5.37-12-12v-96c0-6.63 5.37-12 12-12z" stroke="#666" fill="#d7e9ff"/><path d="M800.15 1127.5h200" stroke="#666" fill="none"/><use xlink:href="#N" transform="matrix(1,0,0,1,820.150661978987,1079.5) translate(75 27.6)"/><use xlink:href="#O" transform="matrix(1,0,0,1,820.150661978987,1137.5) translate(15 29.6)"/><use xlink:href="#P" transform="matrix(1,0,0,1,820.150661978987,1137.5) translate(67.25 29.6)"/><path d="M420 1109.5h180v70H420z" stroke="#666" fill="#a5a7aa"/><use xlink:href="#a" transform="matrix(1,0,0,1,440,1109.5) translate(43.34444444444445 40.599999999999994)"/><path d="M639.3 1000.5H532.26l-3.02.4-2.75 1.14-2.4 1.83-1.83 2.4-1.14 2.75-.4 3v80.6h-1v-80.65l.44-3.2 1.24-3 2-2.6 2.6-2 3-1.25 3.2-.42H639.3zm232.27-.58l3 1.24 2.6 2 2 2.6 1.23 3 .42 3.2v66.54h-1v-66.47l-.4-3-1.13-2.77-1.85-2.4-2.4-1.82-2.74-1.14-3-.4h-86.9v-1h86.96zM880.82 1079h-1v-.5h1zM520.2 1107.38l-4.62-14.26h9.27z" fill="#333"/><path d="M520.2 1109l-5.3-16.38h10.64zm-3.93-15.38l3.94 12.14 3.96-12.14z" fill="#333"/><use xlink:href="#O" transform="matrix(1,0,0,1,639.3070844681324,989.2) translate(0.0049999999999954525 14.4)"/><use xlink:href="#B" transform="matrix(1,0,0,1,639.3070844681324,989.2) translate(52.254999999999995 14.4)"/><path d="M984.84 915.25h-53.17l-3.02.4-2.76 1.14-2.4 1.82-1.83 2.4-1.14 2.75-.4 3v135.85h-1v-135.9l.42-3.2 1.25-3 2-2.6 2.6-2 3-1.25 3.2-.42h53.24zm335.66-12.47l-.42 3.2-1.24 3-2 2.6-2.6 2-3 1.25-3.2.42h-53.25v-1h53.17l3-.4 2.77-1.14 2.4-1.82 1.82-2.4 1.14-2.75.4-3V751h1zM1320.5 751h-1v-.5h1zM919.63 1077.38l-4.63-14.26h9.27z" fill="#333"/><path d="M919.63 1079l-5.32-16.38h10.66zm-3.94-15.38l3.93 12.14 3.95-12.14z" fill="#333"/><use xlink:href="#I" transform="matrix(1,0,0,1,984.8412571937109,903.95) translate(0.0049999999999954525 14.4)"/><use xlink:href="#Q" transform="matrix(1,0,0,1,984.8412571937109,903.95) translate(62.955 14.4)"/><use xlink:href="#R" transform="matrix(1,0,0,1,984.8412571937109,903.95) translate(124.205 14.4)"/><use xlink:href="#S" transform="matrix(1,0,0,1,984.8412571937109,903.95) translate(194.055 14.4)"/><use xlink:href="#H" transform="matrix(1,0,0,1,984.8412571937109,903.95) translate(214.055 14.4)"/><path d="M960.75 808.47l.4 3 1.14 2.77 1.82 2.4 2.4 1.82 2.75 1.14 3 .4h68.4v1h-68.45l-3.2-.42-3-1.24-2.6-2-2-2.6-1.25-3-.42-3.2v-11.66h1zm281.6.06l-.44 3.2-1.23 3-2 2.6-2.6 2-3 1.25-3.2.42h-38.45v-1h38.38l3.02-.4 2.75-1.14 2.4-1.83 1.83-2.4 1.14-2.75.4-3V751h1zM1242.34 751h-1v-.5h1zM964.9 796.38h-9.3l4.65-14.26z" fill="#333"/><path d="M965.57 796.88h-10.64l5.32-16.38zm-9.27-1h7.9l-3.95-12.14z" fill="#333"/><use xlink:href="#M" transform="matrix(1,0,0,1,1040.6673933962418,809.7) translate(0.0049999999999954525 14.4)"/><use xlink:href="#B" transform="matrix(1,0,0,1,1040.6673933962418,809.7) translate(60.904999999999994 14.4)"/><path d="M1230.58 1175.76l3 1.24 2.6 2 2 2.6 1.23 3 .43 3.2v16.32h-1v-16.25l-.4-3-1.13-2.77-1.84-2.4-2.4-1.82-2.74-1.15-3.02-.4h-59.48v-1h59.55zm-229.43.58v-1h20.77v1z" fill="#333"/><path d="M1001.16 1176.34h-.5v-1h.5zM1239.33 1218.88l-4.63-14.26h9.27z" fill="#333"/><path d="M1239.33 1220.5l-5.32-16.38h10.66zm-3.94-15.38l3.93 12.14 3.95-12.14z" fill="#333"/><use xlink:href="#T" transform="matrix(1,0,0,1,1021.9205761878584,1165.038480060522) translate(0.0049999999999954525 14.4)"/><use xlink:href="#U" transform="matrix(1,0,0,1,1021.9205761878584,1165.038480060522) translate(37.004999999999995 14.4)"/><use xlink:href="#S" transform="matrix(1,0,0,1,1021.9205761878584,1165.038480060522) translate(83.955 14.4)"/><use xlink:href="#V" transform="matrix(1,0,0,1,1021.9205761878584,1165.038480060522) translate(103.955 14.4)"/><path d="M1020.96 1099.34h-19.8v-1h19.8zm220.28-12.46l-.43 3.2-1.23 3-2 2.6-2.6 2-3 1.24-3.2.42h-69v-1h68.93l3.02-.4 2.75-1.13 2.4-1.83 1.83-2.4 1.14-2.74.4-3.02v-9.92h1zM1001.16 1099.34h-.5v-1h.5zM1245.37 1076.38h-9.27l4.64-14.26z" fill="#333"/><path d="M1246.06 1076.88h-10.65l5.34-16.38zm-9.27-1h7.88l-3.94-12.14z" fill="#333"/><use xlink:href="#G" transform="matrix(1,0,0,1,1020.9575070362185,1088.0425084943513) translate(0.0049999999999954525 14.4)"/><use xlink:href="#W" transform="matrix(1,0,0,1,1020.9575070362185,1088.0425084943513) translate(58.905 14.4)"/><use xlink:href="#V" transform="matrix(1,0,0,1,1020.9575070362185,1088.0425084943513) translate(96.855 14.4)"/><path d="M1017.5 1030.5h-40.1l-3 .4-2.76 1.14-2.4 1.83-1.83 2.4-1.13 2.75-.4 3v20.6h-1v-20.65l.43-3.2 1.24-3 2-2.6 2.6-2 3-1.25 3.2-.42h40.16zm181.8 0h-39.7v-1h39.7zM1199.8 1030.5h-.5v-1h.5zM965.38 1077.38l-4.64-14.26H970z" fill="#333"/><path d="M965.38 1079l-5.33-16.38h10.65zm-3.95-15.38l3.95 12.14 3.94-12.14z" fill="#333"/><use xlink:href="#O" transform="matrix(1,0,0,1,1017.5022793755625,1019.2) translate(0.0049999999999954525 14.4)"/><use xlink:href="#B" transform="matrix(1,0,0,1,1017.5022793755625,1019.2) translate(52.254999999999995 14.4)"/><path d="M970.4 1238.97l.4 3 1.13 2.77 1.83 2.4 2.4 1.82 2.75 1.14 3.02.4h40.94v1h-41l-3.2-.42-3-1.24-2.6-2-2-2.6-1.25-3-.4-3.2v-22.66h1zm228.6 11.53v1h-39.34v-1zM1199.5 1251.5h-.5v-1h.5zM974.53 1215.88h-9.28l4.64-14.26z" fill="#333"/><path d="M975.2 1216.38h-10.63l5.32-16.38zm-9.26-1h7.9l-3.95-12.14z" fill="#333"/><use xlink:href="#X" transform="matrix(1,0,0,1,1022.8601208665465,1240.2) translate(0.0049999999999954525 14.4)"/><use xlink:href="#B" transform="matrix(1,0,0,1,1022.8601208665465,1240.2) translate(46.955 14.4)"/><path d="M480.67 1307.97l.4 3 1.13 2.77 1.84 2.4 2.4 1.82 2.74 1.14 3.02.4h155.17v1H492.14l-3.22-.42-3-1.24-2.6-2-2-2.6-1.23-3-.43-3.2v-111.66h1zm440.66.06l-.42 3.2-1.24 3-2 2.6-2.6 2-3 1.25-3.2.42h-124.7v-1H908.8l3-.4 2.77-1.14 2.4-1.83 1.82-2.4 1.13-2.75.4-3V1200.5h1zM921.33 1200.5h-1v-.5h1zM484.8 1195.88h-9.27l4.64-14.26z" fill="#333"/><path d="M485.5 1196.38h-10.66l5.33-16.38zm-9.28-1h7.9l-3.95-12.14z" fill="#333"/><use xlink:href="#X" transform="matrix(1,0,0,1,647.3727674501004,1309.2) translate(0.0049999999999954525 14.4)"/><use xlink:href="#B" transform="matrix(1,0,0,1,647.3727674501004,1309.2) translate(46.955 14.4)"/><path d="M561.47 808.47l.4 3 1.14 2.77 1.84 2.4 2.4 1.82 2.75 1.14 3 .4h61.3v1h-61.36l-3.2-.42-3-1.24-2.6-2-2-2.6-1.25-3-.43-3.2V766h1zm280.5.06l-.43 3.2-1.25 3-2 2.6-2.6 2-3 1.25-3.2.42h-76.36v-1h76.28l3.02-.4 2.76-1.14 2.38-1.83 1.84-2.4 1.14-2.75.4-3v-11.6h1zM561.47 766h-1v-.5h1zM846.1 796.38h-9.28l4.64-14.26z" fill="#333"/><path d="M846.78 796.88h-10.65l5.33-16.38zm-9.27-1h7.9l-3.94-12.14z" fill="#333"/><use xlink:href="#Y" transform="matrix(1,0,0,1,634.2883124776265,809.7) translate(0.005000000000002558 14.4)"/><use xlink:href="#H" transform="matrix(1,0,0,1,634.2883124776265,809.7) translate(62.955000000000005 14.4)"/><path d="M666.43 1083.75h-60.48l-3 .4-2.77 1.14-2.4 1.83-1.82 2.4-1.14 2.74-.4 3.02v13.2h-1v-13.28l.42-3.2 1.24-3 2-2.6 2.6-2 3-1.24 3.2-.43h60.55zm120.04 0h-35.8v-1h35.8zM594.42 1109h-1v-.5h1zM801.23 1083.25l-14.26 4.64v-9.28z" fill="#333"/><path d="M802.85 1083.25l-16.38 5.33v-10.65zm-15.38 3.95l12.14-3.95-12.13-3.94z" fill="#333"/><g><use xlink:href="#T" transform="matrix(1,0,0,1,666.4268568074764,1072.4547344822008) translate(0.005000000000002558 14.4)"/><use xlink:href="#Z" transform="matrix(1,0,0,1,666.4268568074764,1072.4547344822008) translate(37.005 14.4)"/></g><path d="M594.42 1181.7l.4 3.03 1.14 2.75 1.83 2.4 2.38 1.83 2.76 1.15 3 .4h63.14v1h-63.2l-3.2-.43-3-1.24-2.6-2-2-2.6-1.24-3-.42-3.2v-1.28h1zm190.5 11.54v1h-36.9v-1zM594.42 1180.5h-1v-.5h1zM799.7 1193.74l-14.27 4.64v-9.27z" fill="#333"/><path d="M801.3 1193.74l-16.37 5.33v-10.65zm-15.37 3.95l12.15-3.96-12.15-3.94z" fill="#333"/><g><use xlink:href="#T" transform="matrix(1,0,0,1,669.0768568074764,1182.943349801206) translate(0.005000000000002558 14.4)"/><use xlink:href="#aa" transform="matrix(1,0,0,1,669.0768568074764,1182.943349801206) translate(37.005 14.4)"/></g><path d="M520.18 1267.97l.4 3 1.13 2.77 1.85 2.4 2.4 1.82 2.74 1.14 3 .4h131.1v1H531.64l-3.2-.42-3-1.24-2.6-2-2-2.6-1.24-3-.42-3.2v-87.54h1zm361.03.06l-.4 3.2-1.25 3-2 2.6-2.6 2-3 1.25-3.2.42h-101.8v-1h101.73l3.02-.4 2.75-1.14 2.4-1.83 1.83-2.4 1.14-2.75.4-3v-51.6h1zM520.18 1180.5h-1v-.5h1zM885.35 1215.88h-9.27l4.63-14.26z" fill="#333"/><path d="M886.04 1216.38H875.4l5.3-16.38zm-9.27-1h7.9l-3.96-12.14z" fill="#333"/><g><use xlink:href="#L" transform="matrix(1,0,0,1,662.7951536197723,1269.2) translate(0.005000000000002558 14.4)"/><use xlink:href="#Z" transform="matrix(1,0,0,1,662.7951536197723,1269.2) translate(56.90500000000001 14.4)"/></g><path d="M560.3 1227.97l.4 3 1.13 2.77 1.83 2.4 2.4 1.82 2.75 1.14 3.02.4h91.82v1h-91.88l-3.2-.42-3-1.24-2.6-2-2-2.6-1.25-3-.4-3.2v-47.54h1zm280.2.06l-.43 3.2-1.24 3-2 2.6-2.6 2-3 1.25-3.2.42h-65.54v-1h65.46l3-.4 2.77-1.14 2.4-1.83 1.82-2.4 1.14-2.75.4-3v-11.6h1zM560.3 1180.5h-1v-.5h1zM844.63 1215.88h-9.28l4.64-14.26z" fill="#333"/><path d="M845.3 1216.38h-10.63L840 1200zm-9.26-1h7.9l-3.95-12.14z" fill="#333"/><g><use xlink:href="#L" transform="matrix(1,0,0,1,663.6399259591165,1229.2) translate(0.005000000000002558 14.4)"/><use xlink:href="#aa" transform="matrix(1,0,0,1,663.6399259591165,1229.2) translate(56.90500000000001 14.4)"/></g><path d="M649.84 1039.5h-77.7l-3 .4-2.76 1.14-2.4 1.83-1.83 2.4L561 1048l-.38 3v57.48h-1v-57.53l.42-3.2 1.24-3 2-2.6 2.6-2 3-1.25 3.2-.42h77.76zm180.83-.58l3 1.24 2.6 2 2 2.6 1.23 3 .43 3.2v11.66h-1v-11.6l-.4-3-1.14-2.76-1.85-2.4-2.4-1.82-2.74-1.14-3-.4h-67.36v-1h67.42zM560.62 1109h-1v-.5h1zM839.43 1077.38l-4.64-14.26h9.26z" fill="#333"/><path d="M839.43 1079l-5.33-16.38h10.65zm-3.95-15.38l3.95 12.14 3.94-12.14z" fill="#333"/><g><use xlink:href="#Y" transform="matrix(1,0,0,1,649.8414014861644,1028.2) translate(0.005000000000002558 14.4)"/><use xlink:href="#Z" transform="matrix(1,0,0,1,649.8414014861644,1028.2) translate(62.955000000000005 14.4)"/></g><path d="M648 620H534.5l-3 .4-2.77 1.14-2.4 1.83-1.82 2.4-1.13 2.75-.4 3V694h-1v-62.53l.42-3.2 1.24-3 2-2.6 2.6-2 3-1.25 3.2-.42H648zm184.7-.58l3 1.24 2.6 2 2 2.6 1.24 3 .42 3.2v11.66h-1v-11.6l-.4-3-1.14-2.76-1.84-2.4-2.38-1.82-2.76-1.14-3.02-.4h-72.96v-1h73.03zM522.97 694.5h-1v-.5h1zM841.46 657.88l-4.64-14.26h9.27z" fill="#333"/><path d="M841.46 659.5l-5.33-16.38h10.65zm-3.95-15.38l3.96 12.14 3.94-12.14z" fill="#333"/><g><use xlink:href="#ab" transform="matrix(1,0,0,1,648.0085599951805,608.7) translate(0.005000000000002558 14.4)"/><use xlink:href="#ac" transform="matrix(1,0,0,1,648.0085599951805,608.7) translate(43.55500000000001 14.4)"/></g><path d="M660.46 1121.55H601v-1h59.46zm122.8 0h-23v-1h23zM601 1121.55h-.5v-1h.5zM798.03 1121.05l-14.26 4.63v-9.27z" fill="#333"/><path d="M799.65 1121.05l-16.38 5.32v-10.65zm-15.38 3.94l12.14-3.95-12.13-3.95z" fill="#333"/><g><use xlink:href="#ab" transform="matrix(1,0,0,1,660.4570844681324,1110.2463772673684) translate(0.005000000000002558 14.4)"/><use xlink:href="#ad" transform="matrix(1,0,0,1,660.4570844681324,1110.2463772673684) translate(43.55500000000001 14.4)"/></g><path d="M660.63 1160.36H601v-1h59.63zm122.64 0h-23.2v-1h23.2zM601 1160.36h-.5v-1h.5zM798.03 1159.86l-14.26 4.63v-9.28z" fill="#333"/><path d="M799.65 1159.86l-16.38 5.32v-10.64zm-15.38 3.95l12.14-3.94-12.13-3.95z" fill="#333"/><g><use xlink:href="#ab" transform="matrix(1,0,0,1,660.6320844681323,1149.0587719714722) translate(0.005000000000002558 14.4)"/><use xlink:href="#ae" transform="matrix(1,0,0,1,660.6320844681323,1149.0587719714722) translate(43.55500000000001 14.4)"/></g><defs><path fill="#fff" d="M232-93c-1 65-40 97-104 97C67 4 28-28 28-90v-158h33c8 89-33 224 67 224 102 0 64-133 71-224h33v155" id="af"/><path fill="#fff" d="M135-143c-3-34-86-38-87 0 15 53 115 12 119 90S17 21 10-45l28-5c4 36 97 45 98 0-10-56-113-15-118-90-4-57 82-63 122-42 12 7 21 19 24 35" id="ag"/><path fill="#fff" d="M100-194c63 0 86 42 84 106H49c0 40 14 67 53 68 26 1 43-12 49-29l28 8c-11 28-37 45-77 45C44 4 14-33 15-96c1-61 26-98 85-98zm52 81c6-60-76-77-97-28-3 7-6 17-6 28h103" id="ah"/><path fill="#fff" d="M114-163C36-179 61-72 57 0H25l-1-190h30c1 12-1 29 2 39 6-27 23-49 58-41v29" id="ai"/><g id="a"><use transform="matrix(0.05555555555555555,0,0,0.05555555555555555,0,0)" xlink:href="#af"/><use transform="matrix(0.05555555555555555,0,0,0.05555555555555555,14.388888888888888,0)" xlink:href="#ag"/><use transform="matrix(0.05555555555555555,0,0,0.05555555555555555,24.388888888888886,0)" xlink:href="#ah"/><use transform="matrix(0.05555555555555555,0,0,0.05555555555555555,35.5,0)" xlink:href="#ai"/></g><path fill="#a9afb8" d="M25 0v-261h50V0H25" id="aj"/><path fill="#a9afb8" d="M25-224v-37h50v37H25zM25 0v-190h50V0H25" id="ak"/><path fill="#a9afb8" d="M14-72v-43h91v43H14" id="al"/><path fill="#a9afb8" d="M135-194c52 0 70 43 70 98 0 56-19 99-73 100-30 1-46-15-58-35L72 0H24l1-261h50v104c11-23 29-37 60-37zM114-30c31 0 40-27 40-66 0-37-7-63-39-63s-41 28-41 65c0 36 8 64 40 64" id="am"/><path fill="#a9afb8" d="M85 4C-2 5 27-109 22-190h50c7 57-23 150 33 157 60-5 35-97 40-157h50l1 190h-47c-2-12 1-28-3-38-12 25-28 42-61 42" id="an"/><path fill="#a9afb8" d="M195-6C206 82 75 100 31 46c-4-6-6-13-8-21l49-6c3 16 16 24 34 25 40 0 42-37 40-79-11 22-30 35-61 35-53 0-70-43-70-97 0-56 18-96 73-97 30 0 46 14 59 34l2-30h47zm-90-29c32 0 41-27 41-63 0-35-9-62-40-62-32 0-39 29-40 63 0 36 9 62 39 62" id="ao"/><path fill="#a9afb8" d="M133-34C117-15 103 5 69 4 32 3 11-16 11-54c-1-60 55-63 116-61 1-26-3-47-28-47-18 1-26 9-28 27l-52-2c7-38 36-58 82-57s74 22 75 68l1 82c-1 14 12 18 25 15v27c-30 8-71 5-69-32zm-48 3c29 0 43-24 42-57-32 0-66-3-65 30 0 17 8 27 23 27" id="ap"/><g id="b"><use transform="matrix(0.0728395061728395,0,0,0.0728395061728395,0,0)" xlink:href="#aj"/><use transform="matrix(0.0728395061728395,0,0,0.0728395061728395,7.28395061728395,0)" xlink:href="#ak"/><use transform="matrix(0.0728395061728395,0,0,0.0728395061728395,14.5679012345679,0)" xlink:href="#aj"/><use transform="matrix(0.0728395061728395,0,0,0.0728395061728395,21.85185185185185,0)" xlink:href="#al"/><use transform="matrix(0.0728395061728395,0,0,0.0728395061728395,30.51975308641975,0)" xlink:href="#am"/><use transform="matrix(0.0728395061728395,0,0,0.0728395061728395,46.471604938271604,0)" xlink:href="#an"/><use transform="matrix(0.0728395061728395,0,0,0.0728395061728395,62.42345679012345,0)" xlink:href="#ao"/><use transform="matrix(0.0728395061728395,0,0,0.0728395061728395,78.37530864197531,0)" xlink:href="#ao"/><use transform="matrix(0.0728395061728395,0,0,0.0728395061728395,94.32716049382717,0)" xlink:href="#ap"/></g><path fill="#a9afb8" d="M233-177c-1 41-23 64-60 70L243 0h-38l-65-103H63V0H30v-248c88 3 205-21 203 71zM63-129c60-2 137 13 137-47 0-61-80-42-137-45v92" id="aq"/><path fill="#a9afb8" d="M179-190L93 31C79 59 56 82 12 73V49c39 6 53-20 64-50L1-190h34L92-34l54-156h33" id="ar"/><path fill="#a9afb8" d="M141-36C126-15 110 5 73 4 37 3 15-17 15-53c-1-64 63-63 125-63 3-35-9-54-41-54-24 1-41 7-42 31l-33-3c5-37 33-52 76-52 45 0 72 20 72 64v82c-1 20 7 32 28 27v20c-31 9-61-2-59-35zM48-53c0 20 12 33 32 33 41-3 63-29 60-74-43 2-92-5-92 41" id="as"/><path fill="#a9afb8" d="M117-194c89-4 53 116 60 194h-32v-121c0-31-8-49-39-48C34-167 62-67 57 0H25l-1-190h30c1 10-1 24 2 32 11-22 29-35 61-36" id="at"/><g id="c"><use transform="matrix(0.04248971193415638,0,0,0.04248971193415638,0,0)" xlink:href="#aq"/><use transform="matrix(0.04248971193415638,0,0,0.04248971193415638,11.004835390946502,0)" xlink:href="#ar"/><use transform="matrix(0.04248971193415638,0,0,0.04248971193415638,18.65298353909465,0)" xlink:href="#as"/><use transform="matrix(0.04248971193415638,0,0,0.04248971193415638,27.150925925925925,0)" xlink:href="#at"/></g><path fill="#a9afb8" d="M266 0h-40l-56-210L115 0H75L2-248h35L96-30l15-64 43-154h32l59 218 59-218h35" id="au"/><path fill="#a9afb8" d="M24-231v-30h32v30H24zM24 0v-190h32V0H24" id="av"/><path fill="#a9afb8" d="M135-143c-3-34-86-38-87 0 15 53 115 12 119 90S17 21 10-45l28-5c4 36 97 45 98 0-10-56-113-15-118-90-4-57 82-63 122-42 12 7 21 19 24 35" id="aw"/><path fill="#a9afb8" d="M100-194c63 0 86 42 84 106H49c0 40 14 67 53 68 26 1 43-12 49-29l28 8c-11 28-37 45-77 45C44 4 14-33 15-96c1-61 26-98 85-98zm52 81c6-60-76-77-97-28-3 7-6 17-6 28h103" id="ax"/><g id="d"><use transform="matrix(0.04248971193415638,0,0,0.04248971193415638,0,0)" xlink:href="#au"/><use transform="matrix(0.04248971193415638,0,0,0.04248971193415638,14.404012345679012,0)" xlink:href="#av"/><use transform="matrix(0.04248971193415638,0,0,0.04248971193415638,17.760699588477365,0)" xlink:href="#aw"/><use transform="matrix(0.04248971193415638,0,0,0.04248971193415638,25.408847736625514,0)" xlink:href="#ax"/></g><path fill="#a9afb8" d="M32 76v-337h29V76H32" id="ay"/><use transform="matrix(0.04248971193415638,0,0,0.04248971193415638,0,0)" xlink:href="#ay" id="e"/><path fill="#a9afb8" d="M153-248C145-148 188 4 80 4 36 3 13-21 6-62l32-5c4 25 16 42 43 43 27 0 39-20 39-49v-147H72v-28h81" id="az"/><path fill="#a9afb8" d="M84 4C-5 8 30-112 23-190h32v120c0 31 7 50 39 49 72-2 45-101 50-169h31l1 190h-30c-1-10 1-25-2-33-11 22-28 36-60 37" id="aA"/><path fill="#a9afb8" d="M24 0v-261h32V0H24" id="aB"/><g id="f"><use transform="matrix(0.04248971193415638,0,0,0.04248971193415638,0,0)" xlink:href="#az"/><use transform="matrix(0.04248971193415638,0,0,0.04248971193415638,7.648148148148148,0)" xlink:href="#aA"/><use transform="matrix(0.04248971193415638,0,0,0.04248971193415638,16.14609053497942,0)" xlink:href="#aB"/><use transform="matrix(0.04248971193415638,0,0,0.04248971193415638,19.502777777777776,0)" xlink:href="#ar"/></g><path fill="#a9afb8" d="M27 0v-27h64v-190l-56 39v-29l58-41h29v221h61V0H27" id="aC"/><path fill="#a9afb8" d="M68-38c1 34 0 65-14 84H32c9-13 17-26 17-46H33v-38h35" id="aD"/><g id="g"><use transform="matrix(0.04248971193415638,0,0,0.04248971193415638,0,0)" xlink:href="#aC"/><use transform="matrix(0.04248971193415638,0,0,0.04248971193415638,7.350720164609052,0)" xlink:href="#aC"/><use transform="matrix(0.04248971193415638,0,0,0.04248971193415638,15.848662551440325,0)" xlink:href="#aD"/></g><path fill="#a9afb8" d="M101-251c82-7 93 87 43 132L82-64C71-53 59-42 53-27h129V0H18c2-99 128-94 128-182 0-28-16-43-45-43s-46 15-49 41l-32-3c6-41 34-60 81-64" id="aE"/><path fill="#a9afb8" d="M101-251c68 0 85 55 85 127S166 4 100 4C33 4 14-52 14-124c0-73 17-127 87-127zm-1 229c47 0 54-49 54-102s-4-102-53-102c-51 0-55 48-55 102 0 53 5 102 54 102" id="aF"/><g id="h"><use transform="matrix(0.04248971193415638,0,0,0.04248971193415638,0,0)" xlink:href="#aE"/><use transform="matrix(0.04248971193415638,0,0,0.04248971193415638,8.497942386831275,0)" xlink:href="#aF"/><use transform="matrix(0.04248971193415638,0,0,0.04248971193415638,16.99588477366255,0)" xlink:href="#aE"/><use transform="matrix(0.04248971193415638,0,0,0.04248971193415638,25.493827160493822,0)" xlink:href="#aC"/></g><path fill="#333" d="M30-248c118-7 216 8 213 122C240-48 200 0 122 0H30v-248zM63-27c89 8 146-16 146-99s-60-101-146-95v194" id="aG"/><path fill="#333" d="M101-251c82-7 93 87 43 132L82-64C71-53 59-42 53-27h129V0H18c2-99 128-94 128-182 0-28-16-43-45-43s-46 15-49 41l-32-3c6-41 34-60 81-64" id="aH"/><g id="i"><use transform="matrix(0.05555555555555555,0,0,0.05555555555555555,0,0)" xlink:href="#aG"/><use transform="matrix(0.05555555555555555,0,0,0.05555555555555555,14.388888888888888,0)" xlink:href="#aH"/></g><path fill="#333" d="M30-248c87 1 191-15 191 75 0 78-77 80-158 76V0H30v-248zm33 125c57 0 124 11 124-50 0-59-68-47-124-48v98" id="aI"/><path fill="#333" d="M114-163C36-179 61-72 57 0H25l-1-190h30c1 12-1 29 2 39 6-27 23-49 58-41v29" id="aJ"/><path fill="#333" d="M100-194c62-1 85 37 85 99 1 63-27 99-86 99S16-35 15-95c0-66 28-99 85-99zM99-20c44 1 53-31 53-75 0-43-8-75-51-75s-53 32-53 75 10 74 51 75" id="aK"/><path fill="#333" d="M24-231v-30h32v30H24zM-9 49c24 4 33-6 33-30v-209h32V24c2 40-23 58-65 49V49" id="aL"/><path fill="#333" d="M100-194c63 0 86 42 84 106H49c0 40 14 67 53 68 26 1 43-12 49-29l28 8c-11 28-37 45-77 45C44 4 14-33 15-96c1-61 26-98 85-98zm52 81c6-60-76-77-97-28-3 7-6 17-6 28h103" id="aM"/><path fill="#333" d="M96-169c-40 0-48 33-48 73s9 75 48 75c24 0 41-14 43-38l32 2c-6 37-31 61-74 61-59 0-76-41-82-99-10-93 101-131 147-64 4 7 5 14 7 22l-32 3c-4-21-16-35-41-35" id="aN"/><path fill="#333" d="M59-47c-2 24 18 29 38 22v24C64 9 27 4 27-40v-127H5v-23h24l9-43h21v43h35v23H59v120" id="aO"/><path fill="#333" d="M135-143c-3-34-86-38-87 0 15 53 115 12 119 90S17 21 10-45l28-5c4 36 97 45 98 0-10-56-113-15-118-90-4-57 82-63 122-42 12 7 21 19 24 35" id="aP"/><g id="j"><use transform="matrix(0.05555555555555555,0,0,0.05555555555555555,0,0)" xlink:href="#aI"/><use transform="matrix(0.05555555555555555,0,0,0.05555555555555555,13.333333333333332,0)" xlink:href="#aJ"/><use transform="matrix(0.05555555555555555,0,0,0.05555555555555555,19.944444444444443,0)" xlink:href="#aK"/><use transform="matrix(0.05555555555555555,0,0,0.05555555555555555,31.055555555555554,0)" xlink:href="#aL"/><use transform="matrix(0.05555555555555555,0,0,0.05555555555555555,35.44444444444444,0)" xlink:href="#aM"/><use transform="matrix(0.05555555555555555,0,0,0.05555555555555555,46.55555555555556,0)" xlink:href="#aN"/><use transform="matrix(0.05555555555555555,0,0,0.05555555555555555,56.55555555555556,0)" xlink:href="#aO"/><use transform="matrix(0.05555555555555555,0,0,0.05555555555555555,62.11111111111112,0)" xlink:href="#aP"/></g><path fill="#333" d="M126-127c33 6 58 20 58 59 0 88-139 92-164 29-3-8-5-16-6-25l32-3c6 27 21 44 54 44 32 0 52-15 52-46 0-38-36-46-79-43v-28c39 1 72-4 72-42 0-27-17-43-46-43-28 0-47 15-49 41l-32-3c6-42 35-63 81-64 48-1 79 21 79 65 0 36-21 52-52 59" id="aQ"/><g id="k"><use transform="matrix(0.05555555555555555,0,0,0.05555555555555555,0,0)" xlink:href="#aG"/><use transform="matrix(0.05555555555555555,0,0,0.05555555555555555,14.388888888888888,0)" xlink:href="#aQ"/></g><path fill="#333" d="M127-220V0H93v-220H8v-28h204v28h-85" id="aR"/><path fill="#333" d="M24-231v-30h32v30H24zM24 0v-190h32V0H24" id="aS"/><path fill="#333" d="M143 0L79-87 56-68V0H24v-261h32v163l83-92h37l-77 82L181 0h-38" id="aT"/><g id="l"><use transform="matrix(0.05555555555555555,0,0,0.05555555555555555,0,0)" xlink:href="#aR"/><use transform="matrix(0.05555555555555555,0,0,0.05555555555555555,11.444444444444445,0)" xlink:href="#aS"/><use transform="matrix(0.05555555555555555,0,0,0.05555555555555555,15.833333333333332,0)" xlink:href="#aN"/><use transform="matrix(0.05555555555555555,0,0,0.05555555555555555,25.833333333333332,0)" xlink:href="#aT"/><use transform="matrix(0.05555555555555555,0,0,0.05555555555555555,35.83333333333333,0)" xlink:href="#aM"/><use transform="matrix(0.05555555555555555,0,0,0.05555555555555555,46.94444444444444,0)" xlink:href="#aO"/><use transform="matrix(0.05555555555555555,0,0,0.05555555555555555,52.5,0)" xlink:href="#aP"/></g><path fill="#333" d="M155-56V0h-30v-56H8v-25l114-167h33v167h35v25h-35zm-30-156c-27 46-58 90-88 131h88v-131" id="aU"/><g id="m"><use transform="matrix(0.05555555555555555,0,0,0.05555555555555555,0,0)" xlink:href="#aG"/><use transform="matrix(0.05555555555555555,0,0,0.05555555555555555,14.388888888888888,0)" xlink:href="#aU"/></g><path fill="#333" d="M30 0v-248h187v28H63v79h144v27H63v87h162V0H30" id="aV"/><path fill="#333" d="M117-194c89-4 53 116 60 194h-32v-121c0-31-8-49-39-48C34-167 62-67 57 0H25l-1-190h30c1 10-1 24 2 32 11-22 29-35 61-36" id="aW"/><g id="n"><use transform="matrix(0.05555555555555555,0,0,0.05555555555555555,0,0)" xlink:href="#aV"/><use transform="matrix(0.05555555555555555,0,0,0.05555555555555555,13.333333333333332,0)" xlink:href="#aW"/><use transform="matrix(0.05555555555555555,0,0,0.05555555555555555,24.444444444444443,0)" xlink:href="#aO"/><use transform="matrix(0.05555555555555555,0,0,0.05555555555555555,30,0)" xlink:href="#aJ"/><use transform="matrix(0.05555555555555555,0,0,0.05555555555555555,36.611111111111114,0)" xlink:href="#aS"/><use transform="matrix(0.05555555555555555,0,0,0.05555555555555555,41,0)" xlink:href="#aM"/><use transform="matrix(0.05555555555555555,0,0,0.05555555555555555,52.111111111111114,0)" xlink:href="#aP"/></g><path fill="#333" d="M27 0v-27h64v-190l-56 39v-29l58-41h29v221h61V0H27" id="aX"/><use transform="matrix(0.05555555555555555,0,0,0.05555555555555555,0,0)" xlink:href="#aX" id="o"/><path fill="#333" d="M232-93c-1 65-40 97-104 97C67 4 28-28 28-90v-158h33c8 89-33 224 67 224 102 0 64-133 71-224h33v155" id="aY"/><g id="p"><use transform="matrix(0.05555555555555555,0,0,0.05555555555555555,0,0)" xlink:href="#aY"/><use transform="matrix(0.05555555555555555,0,0,0.05555555555555555,14.388888888888888,0)" xlink:href="#aP"/><use transform="matrix(0.05555555555555555,0,0,0.05555555555555555,24.388888888888886,0)" xlink:href="#aM"/><use transform="matrix(0.05555555555555555,0,0,0.05555555555555555,35.5,0)" xlink:href="#aJ"/></g><path fill="#333" d="M212-179c-10-28-35-45-73-45-59 0-87 40-87 99 0 60 29 101 89 101 43 0 62-24 78-52l27 14C228-24 195 4 139 4 59 4 22-46 18-125c-6-104 99-153 187-111 19 9 31 26 39 46" id="aZ"/><path fill="#333" d="M24 0v-261h32V0H24" id="ba"/><g id="q"><use transform="matrix(0.05555555555555555,0,0,0.05555555555555555,0,0)" xlink:href="#aZ"/><use transform="matrix(0.05555555555555555,0,0,0.05555555555555555,14.388888888888888,0)" xlink:href="#aK"/><use transform="matrix(0.05555555555555555,0,0,0.05555555555555555,25.5,0)" xlink:href="#aW"/><use transform="matrix(0.05555555555555555,0,0,0.05555555555555555,36.611111111111114,0)" xlink:href="#aO"/><use transform="matrix(0.05555555555555555,0,0,0.05555555555555555,42.16666666666667,0)" xlink:href="#aJ"/><use transform="matrix(0.05555555555555555,0,0,0.05555555555555555,48.777777777777786,0)" xlink:href="#aK"/><use transform="matrix(0.05555555555555555,0,0,0.05555555555555555,59.8888888888889,0)" xlink:href="#ba"/><use transform="matrix(0.05555555555555555,0,0,0.05555555555555555,64.27777777777779,0)" xlink:href="#ba"/><use transform="matrix(0.05555555555555555,0,0,0.05555555555555555,68.66666666666667,0)" xlink:href="#aM"/><use transform="matrix(0.05555555555555555,0,0,0.05555555555555555,79.77777777777779,0)" xlink:href="#aJ"/></g><path fill="#333" d="M185-189c-5-48-123-54-124 2 14 75 158 14 163 119 3 78-121 87-175 55-17-10-28-26-33-46l33-7c5 56 141 63 141-1 0-78-155-14-162-118-5-82 145-84 179-34 5 7 8 16 11 25" id="bb"/><path fill="#333" d="M177-190C167-65 218 103 67 71c-23-6-38-20-44-43l32-5c15 47 100 32 89-28v-30C133-14 115 1 83 1 29 1 15-40 15-95c0-56 16-97 71-98 29-1 48 16 59 35 1-10 0-23 2-32h30zM94-22c36 0 50-32 50-73 0-42-14-75-50-75-39 0-46 34-46 75s6 73 46 73" id="bc"/><g id="r"><use transform="matrix(0.05,0,0,0.05,0,0)" xlink:href="#bb"/><use transform="matrix(0.05,0,0,0.05,12,0)" xlink:href="#aS"/><use transform="matrix(0.05,0,0,0.05,15.949999999999998,0)" xlink:href="#bc"/><use transform="matrix(0.05,0,0,0.05,25.950000000000003,0)" xlink:href="#aW"/><use transform="matrix(0.05,0,0,0.05,35.95,0)" xlink:href="#aS"/><use transform="matrix(0.05,0,0,0.05,39.900000000000006,0)" xlink:href="#aW"/></g><path fill="#333" d="M84 4C-5 8 30-112 23-190h32v120c0 31 7 50 39 49 72-2 45-101 50-169h31l1 190h-30c-1-10 1-25-2-33-11 22-28 36-60 37" id="bd"/><path fill="#333" d="M115-194c55 1 70 41 70 98S169 2 115 4C84 4 66-9 55-30l1 105H24l-1-265h31l2 30c10-21 28-34 59-34zm-8 174c40 0 45-34 45-75s-6-73-45-74c-42 0-51 32-51 76 0 43 10 73 51 73" id="be"/><g id="s"><use transform="matrix(0.05,0,0,0.05,0,0)" xlink:href="#bb"/><use transform="matrix(0.05,0,0,0.05,12,0)" xlink:href="#aS"/><use transform="matrix(0.05,0,0,0.05,15.949999999999998,0)" xlink:href="#bc"/><use transform="matrix(0.05,0,0,0.05,25.950000000000003,0)" xlink:href="#aW"/><use transform="matrix(0.05,0,0,0.05,35.95,0)" xlink:href="#bd"/><use transform="matrix(0.05,0,0,0.05,45.95,0)" xlink:href="#be"/></g><path fill="#333" d="M233-177c-1 41-23 64-60 70L243 0h-38l-65-103H63V0H30v-248c88 3 205-21 203 71zM63-129c60-2 137 13 137-47 0-61-80-42-137-45v92" id="bf"/><g id="t"><use transform="matrix(0.05,0,0,0.05,0,0)" xlink:href="#bf"/><use transform="matrix(0.05,0,0,0.05,12.950000000000001,0)" xlink:href="#aM"/><use transform="matrix(0.05,0,0,0.05,22.950000000000003,0)" xlink:href="#aO"/><use transform="matrix(0.05,0,0,0.05,27.950000000000003,0)" xlink:href="#bd"/><use transform="matrix(0.05,0,0,0.05,37.95,0)" xlink:href="#aJ"/><use transform="matrix(0.05,0,0,0.05,43.900000000000006,0)" xlink:href="#aW"/></g><path fill="#333" d="M205 0l-28-72H64L36 0H1l101-248h38L239 0h-34zm-38-99l-47-123c-12 45-31 82-46 123h93" id="bg"/><path fill="#333" d="M106-169C34-169 62-67 57 0H25v-261h32l-1 103c12-21 28-36 61-36 89 0 53 116 60 194h-32v-121c2-32-8-49-39-48" id="bh"/><path fill="#333" d="M85-194c31 0 48 13 60 33l-1-100h32l1 261h-30c-2-10 0-23-3-31C134-8 116 4 85 4 32 4 16-35 15-94c0-66 23-100 70-100zm9 24c-40 0-46 34-46 75 0 40 6 74 45 74 42 0 51-32 51-76 0-42-9-74-50-73" id="bi"/><g id="u"><use transform="matrix(0.05,0,0,0.05,0,0)" xlink:href="#bg"/><use transform="matrix(0.05,0,0,0.05,12,0)" xlink:href="#bd"/><use transform="matrix(0.05,0,0,0.05,22,0)" xlink:href="#aO"/><use transform="matrix(0.05,0,0,0.05,27,0)" xlink:href="#bh"/><use transform="matrix(0.05,0,0,0.05,37,0)" xlink:href="#aK"/><use transform="matrix(0.05,0,0,0.05,47,0)" xlink:href="#aJ"/><use transform="matrix(0.05,0,0,0.05,52.95,0)" xlink:href="#aS"/><use transform="matrix(0.05,0,0,0.05,56.900000000000006,0)" xlink:href="#aP"/><use transform="matrix(0.05,0,0,0.05,65.9,0)" xlink:href="#aM"/><use transform="matrix(0.05,0,0,0.05,75.9,0)" xlink:href="#bi"/></g><path fill="#333" d="M160-131c35 5 61 23 61 61C221 17 115-2 30 0v-248c76 3 177-17 177 60 0 33-19 50-47 57zm-97-11c50-1 110 9 110-42 0-47-63-36-110-37v79zm0 115c55-2 124 14 124-45 0-56-70-42-124-44v89" id="bj"/><path fill="#333" d="M141-36C126-15 110 5 73 4 37 3 15-17 15-53c-1-64 63-63 125-63 3-35-9-54-41-54-24 1-41 7-42 31l-33-3c5-37 33-52 76-52 45 0 72 20 72 64v82c-1 20 7 32 28 27v20c-31 9-61-2-59-35zM48-53c0 20 12 33 32 33 41-3 63-29 60-74-43 2-92-5-92 41" id="bk"/><g id="v"><use transform="matrix(0.05,0,0,0.05,0,0)" xlink:href="#bj"/><use transform="matrix(0.05,0,0,0.05,12,0)" xlink:href="#aM"/><use transform="matrix(0.05,0,0,0.05,22,0)" xlink:href="#bk"/><use transform="matrix(0.05,0,0,0.05,32,0)" xlink:href="#aJ"/><use transform="matrix(0.05,0,0,0.05,37.95,0)" xlink:href="#aM"/><use transform="matrix(0.05,0,0,0.05,47.95,0)" xlink:href="#aJ"/></g><g id="w"><use transform="matrix(0.05,0,0,0.05,0,0)" xlink:href="#aR"/><use transform="matrix(0.05,0,0,0.05,8.950000000000001,0)" xlink:href="#aK"/><use transform="matrix(0.05,0,0,0.05,18.950000000000003,0)" xlink:href="#aT"/><use transform="matrix(0.05,0,0,0.05,27.950000000000003,0)" xlink:href="#aM"/><use transform="matrix(0.05,0,0,0.05,37.95,0)" xlink:href="#aW"/></g><path fill="#333" d="M33 0v-248h34V0H33" id="bl"/><path fill="#333" d="M108 0H70L1-190h34L89-25l56-165h34" id="bm"/><g id="x"><use transform="matrix(0.05,0,0,0.05,0,0)" xlink:href="#bl"/><use transform="matrix(0.05,0,0,0.05,5,0)" xlink:href="#aW"/><use transform="matrix(0.05,0,0,0.05,15,0)" xlink:href="#bm"/><use transform="matrix(0.05,0,0,0.05,24,0)" xlink:href="#bk"/><use transform="matrix(0.05,0,0,0.05,34,0)" xlink:href="#ba"/><use transform="matrix(0.05,0,0,0.05,37.95,0)" xlink:href="#aS"/><use transform="matrix(0.05,0,0,0.05,41.900000000000006,0)" xlink:href="#bi"/></g><g id="y"><use transform="matrix(0.05,0,0,0.05,0,0)" xlink:href="#ba"/><use transform="matrix(0.05,0,0,0.05,3.95,0)" xlink:href="#aK"/><use transform="matrix(0.05,0,0,0.05,13.949999999999998,0)" xlink:href="#bc"/><use transform="matrix(0.05,0,0,0.05,23.95,0)" xlink:href="#aS"/><use transform="matrix(0.05,0,0,0.05,27.899999999999995,0)" xlink:href="#aW"/></g><g id="z"><use transform="matrix(0.05,0,0,0.05,0,0)" xlink:href="#aJ"/><use transform="matrix(0.05,0,0,0.05,5.95,0)" xlink:href="#aM"/><use transform="matrix(0.05,0,0,0.05,15.949999999999998,0)" xlink:href="#bk"/><use transform="matrix(0.05,0,0,0.05,25.950000000000003,0)" xlink:href="#aP"/><use transform="matrix(0.05,0,0,0.05,34.95,0)" xlink:href="#aK"/><use transform="matrix(0.05,0,0,0.05,44.95,0)" xlink:href="#aW"/></g><g id="A"><use transform="matrix(0.05,0,0,0.05,0,0)" xlink:href="#aY"/><use transform="matrix(0.05,0,0,0.05,12.950000000000001,0)" xlink:href="#aP"/><use transform="matrix(0.05,0,0,0.05,21.950000000000003,0)" xlink:href="#aM"/><use transform="matrix(0.05,0,0,0.05,31.950000000000003,0)" xlink:href="#aJ"/></g><path fill="#333" d="M101-234c-31-9-42 10-38 44h38v23H63V0H32v-167H5v-23h27c-7-52 17-82 69-68v24" id="bn"/><path fill="#333" d="M210-169c-67 3-38 105-44 169h-31v-121c0-29-5-50-35-48C34-165 62-65 56 0H25l-1-190h30c1 10-1 24 2 32 10-44 99-50 107 0 11-21 27-35 58-36 85-2 47 119 55 194h-31v-121c0-29-5-49-35-48" id="bo"/><g id="B"><use transform="matrix(0.05,0,0,0.05,0,0)" xlink:href="#bl"/><use transform="matrix(0.05,0,0,0.05,5,0)" xlink:href="#aW"/><use transform="matrix(0.05,0,0,0.05,15,0)" xlink:href="#bn"/><use transform="matrix(0.05,0,0,0.05,20,0)" xlink:href="#aK"/><use transform="matrix(0.05,0,0,0.05,30,0)" xlink:href="#aJ"/><use transform="matrix(0.05,0,0,0.05,35.95,0)" xlink:href="#bo"/><use transform="matrix(0.05,0,0,0.05,50.900000000000006,0)" xlink:href="#bk"/><use transform="matrix(0.05,0,0,0.05,60.900000000000006,0)" xlink:href="#aO"/><use transform="matrix(0.05,0,0,0.05,65.9,0)" xlink:href="#aS"/><use transform="matrix(0.05,0,0,0.05,69.85000000000001,0)" xlink:href="#aK"/><use transform="matrix(0.05,0,0,0.05,79.85000000000001,0)" xlink:href="#aW"/></g><g id="C"><use transform="matrix(0.05,0,0,0.05,0,0)" xlink:href="#aG"/><use transform="matrix(0.05,0,0,0.05,12.950000000000001,0)" xlink:href="#aX"/></g><g id="D"><use transform="matrix(0.05,0,0,0.05,0,0)" xlink:href="#aY"/><use transform="matrix(0.05,0,0,0.05,12.950000000000001,0)" xlink:href="#aP"/><use transform="matrix(0.05,0,0,0.05,21.950000000000003,0)" xlink:href="#aM"/><use transform="matrix(0.05,0,0,0.05,31.950000000000003,0)" xlink:href="#aJ"/><use transform="matrix(0.05,0,0,0.05,37.900000000000006,0)" xlink:href="#aP"/></g><use transform="matrix(0.05555555555555555,0,0,0.05555555555555555,0,0)" xlink:href="#aH" id="E"/><g id="F"><use transform="matrix(0.05555555555555555,0,0,0.05555555555555555,0,0)" xlink:href="#aI"/><use transform="matrix(0.05555555555555555,0,0,0.05555555555555555,13.333333333333332,0)" xlink:href="#aJ"/><use transform="matrix(0.05555555555555555,0,0,0.05555555555555555,19.944444444444443,0)" xlink:href="#aK"/><use transform="matrix(0.05555555555555555,0,0,0.05555555555555555,31.055555555555554,0)" xlink:href="#aL"/><use transform="matrix(0.05555555555555555,0,0,0.05555555555555555,35.44444444444444,0)" xlink:href="#aM"/><use transform="matrix(0.05555555555555555,0,0,0.05555555555555555,46.55555555555556,0)" xlink:href="#aN"/><use transform="matrix(0.05555555555555555,0,0,0.05555555555555555,56.55555555555556,0)" xlink:href="#aO"/></g><g id="G"><use transform="matrix(0.05,0,0,0.05,0,0)" xlink:href="#aZ"/><use transform="matrix(0.05,0,0,0.05,12.950000000000001,0)" xlink:href="#aJ"/><use transform="matrix(0.05,0,0,0.05,18.900000000000002,0)" xlink:href="#aM"/><use transform="matrix(0.05,0,0,0.05,28.900000000000002,0)" xlink:href="#bk"/><use transform="matrix(0.05,0,0,0.05,38.900000000000006,0)" xlink:href="#aO"/><use transform="matrix(0.05,0,0,0.05,43.900000000000006,0)" xlink:href="#aM"/></g><g id="H"><use transform="matrix(0.05,0,0,0.05,0,0)" xlink:href="#aI"/><use transform="matrix(0.05,0,0,0.05,12,0)" xlink:href="#aJ"/><use transform="matrix(0.05,0,0,0.05,17.95,0)" xlink:href="#aK"/><use transform="matrix(0.05,0,0,0.05,27.950000000000003,0)" xlink:href="#aL"/><use transform="matrix(0.05,0,0,0.05,31.899999999999995,0)" xlink:href="#aM"/><use transform="matrix(0.05,0,0,0.05,41.9,0)" xlink:href="#aN"/><use transform="matrix(0.05,0,0,0.05,50.9,0)" xlink:href="#aO"/></g><path fill="#333" d="M179-190L93 31C79 59 56 82 12 73V49c39 6 53-20 64-50L1-190h34L92-34l54-156h33" id="bp"/><g id="I"><use transform="matrix(0.05,0,0,0.05,0,0)" xlink:href="#bl"/><use transform="matrix(0.05,0,0,0.05,5,0)" xlink:href="#bi"/><use transform="matrix(0.05,0,0,0.05,15,0)" xlink:href="#aM"/><use transform="matrix(0.05,0,0,0.05,25,0)" xlink:href="#aW"/><use transform="matrix(0.05,0,0,0.05,35,0)" xlink:href="#aO"/><use transform="matrix(0.05,0,0,0.05,40,0)" xlink:href="#aS"/><use transform="matrix(0.05,0,0,0.05,43.95,0)" xlink:href="#bn"/><use transform="matrix(0.05,0,0,0.05,48.95,0)" xlink:href="#bp"/></g><g id="J"><use transform="matrix(0.05,0,0,0.05,0,0)" xlink:href="#aY"/><use transform="matrix(0.05,0,0,0.05,12.950000000000001,0)" xlink:href="#aP"/><use transform="matrix(0.05,0,0,0.05,21.950000000000003,0)" xlink:href="#aM"/><use transform="matrix(0.05,0,0,0.05,31.950000000000003,0)" xlink:href="#aJ"/><use transform="matrix(0.05,0,0,0.05,37.900000000000006,0)" xlink:href="#aP"/></g><g id="K"><use transform="matrix(0.05,0,0,0.05,0,0)" xlink:href="#aS"/><use transform="matrix(0.05,0,0,0.05,3.95,0)" xlink:href="#aW"/></g><g id="L"><use transform="matrix(0.05,0,0,0.05,0,0)" xlink:href="#aG"/><use transform="matrix(0.05,0,0,0.05,12.950000000000001,0)" xlink:href="#aM"/><use transform="matrix(0.05,0,0,0.05,22.950000000000003,0)" xlink:href="#ba"/><use transform="matrix(0.05,0,0,0.05,26.900000000000002,0)" xlink:href="#aM"/><use transform="matrix(0.05,0,0,0.05,36.900000000000006,0)" xlink:href="#aO"/><use transform="matrix(0.05,0,0,0.05,41.900000000000006,0)" xlink:href="#aM"/></g><g id="M"><use transform="matrix(0.05,0,0,0.05,0,0)" xlink:href="#aI"/><use transform="matrix(0.05,0,0,0.05,12,0)" xlink:href="#aJ"/><use transform="matrix(0.05,0,0,0.05,17.95,0)" xlink:href="#aK"/><use transform="matrix(0.05,0,0,0.05,27.950000000000003,0)" xlink:href="#aL"/><use transform="matrix(0.05,0,0,0.05,31.899999999999995,0)" xlink:href="#aM"/><use transform="matrix(0.05,0,0,0.05,41.9,0)" xlink:href="#aN"/><use transform="matrix(0.05,0,0,0.05,50.9,0)" xlink:href="#aO"/></g><use transform="matrix(0.05,0,0,0.05,0,0)" xlink:href="#aQ" id="N"/><g id="O"><use transform="matrix(0.05,0,0,0.05,0,0)" xlink:href="#aR"/><use transform="matrix(0.05,0,0,0.05,10.3,0)" xlink:href="#aS"/><use transform="matrix(0.05,0,0,0.05,14.25,0)" xlink:href="#aN"/><use transform="matrix(0.05,0,0,0.05,23.25,0)" xlink:href="#aT"/><use transform="matrix(0.05,0,0,0.05,32.25,0)" xlink:href="#aM"/><use transform="matrix(0.05,0,0,0.05,42.25,0)" xlink:href="#aO"/></g><g id="P"><use transform="matrix(0.05,0,0,0.05,0,0)" xlink:href="#aZ"/><use transform="matrix(0.05,0,0,0.05,12.950000000000001,0)" xlink:href="#aK"/><use transform="matrix(0.05,0,0,0.05,22.950000000000003,0)" xlink:href="#aW"/><use transform="matrix(0.05,0,0,0.05,32.95,0)" xlink:href="#aO"/><use transform="matrix(0.05,0,0,0.05,37.95,0)" xlink:href="#aJ"/><use transform="matrix(0.05,0,0,0.05,43.900000000000006,0)" xlink:href="#aK"/><use transform="matrix(0.05,0,0,0.05,53.900000000000006,0)" xlink:href="#ba"/><use transform="matrix(0.05,0,0,0.05,57.85,0)" xlink:href="#ba"/><use transform="matrix(0.05,0,0,0.05,61.80000000000001,0)" xlink:href="#aM"/><use transform="matrix(0.05,0,0,0.05,71.80000000000001,0)" xlink:href="#aJ"/></g><g id="Q"><use transform="matrix(0.05,0,0,0.05,0,0)" xlink:href="#aR"/><use transform="matrix(0.05,0,0,0.05,10.3,0)" xlink:href="#aS"/><use transform="matrix(0.05,0,0,0.05,14.25,0)" xlink:href="#aN"/><use transform="matrix(0.05,0,0,0.05,23.25,0)" xlink:href="#aT"/><use transform="matrix(0.05,0,0,0.05,32.25,0)" xlink:href="#aM"/><use transform="matrix(0.05,0,0,0.05,42.25,0)" xlink:href="#aO"/><use transform="matrix(0.05,0,0,0.05,47.25,0)" xlink:href="#aP"/></g><g id="R"><use transform="matrix(0.05,0,0,0.05,0,0)" xlink:href="#bf"/><use transform="matrix(0.05,0,0,0.05,12.950000000000001,0)" xlink:href="#aM"/><use transform="matrix(0.05,0,0,0.05,22.950000000000003,0)" xlink:href="#ba"/><use transform="matrix(0.05,0,0,0.05,26.900000000000002,0)" xlink:href="#bk"/><use transform="matrix(0.05,0,0,0.05,36.900000000000006,0)" xlink:href="#aO"/><use transform="matrix(0.05,0,0,0.05,41.900000000000006,0)" xlink:href="#aS"/><use transform="matrix(0.05,0,0,0.05,45.85000000000001,0)" xlink:href="#bm"/><use transform="matrix(0.05,0,0,0.05,54.85,0)" xlink:href="#aM"/></g><g id="S"><use transform="matrix(0.05,0,0,0.05,0,0)" xlink:href="#aO"/><use transform="matrix(0.05,0,0,0.05,5,0)" xlink:href="#aK"/></g><g id="T"><use transform="matrix(0.05,0,0,0.05,0,0)" xlink:href="#bg"/><use transform="matrix(0.05,0,0,0.05,12,0)" xlink:href="#bi"/><use transform="matrix(0.05,0,0,0.05,22,0)" xlink:href="#bi"/></g><g id="U"><use transform="matrix(0.05,0,0,0.05,0,0)" xlink:href="#aV"/><use transform="matrix(0.05,0,0,0.05,12,0)" xlink:href="#aW"/><use transform="matrix(0.05,0,0,0.05,22,0)" xlink:href="#aO"/><use transform="matrix(0.05,0,0,0.05,27,0)" xlink:href="#aJ"/><use transform="matrix(0.05,0,0,0.05,32.95,0)" xlink:href="#bp"/></g><g id="V"><use transform="matrix(0.05,0,0,0.05,0,0)" xlink:href="#aO"/><use transform="matrix(0.05,0,0,0.05,5,0)" xlink:href="#aS"/><use transform="matrix(0.05,0,0,0.05,8.95,0)" xlink:href="#aN"/><use transform="matrix(0.05,0,0,0.05,17.95,0)" xlink:href="#aT"/><use transform="matrix(0.05,0,0,0.05,26.950000000000003,0)" xlink:href="#aM"/><use transform="matrix(0.05,0,0,0.05,36.95,0)" xlink:href="#aO"/></g><path fill="#333" d="M206 0h-36l-40-164L89 0H53L-1-190h32L70-26l43-164h34l41 164 42-164h31" id="bq"/><g id="W"><use transform="matrix(0.05,0,0,0.05,0,0)" xlink:href="#aW"/><use transform="matrix(0.05,0,0,0.05,10,0)" xlink:href="#aM"/><use transform="matrix(0.05,0,0,0.05,20,0)" xlink:href="#bq"/></g><g id="X"><use transform="matrix(0.05,0,0,0.05,0,0)" xlink:href="#aV"/><use transform="matrix(0.05,0,0,0.05,12,0)" xlink:href="#aW"/><use transform="matrix(0.05,0,0,0.05,22,0)" xlink:href="#aO"/><use transform="matrix(0.05,0,0,0.05,27,0)" xlink:href="#aJ"/><use transform="matrix(0.05,0,0,0.05,32.95,0)" xlink:href="#bp"/></g><g id="Y"><use transform="matrix(0.05,0,0,0.05,0,0)" xlink:href="#aY"/><use transform="matrix(0.05,0,0,0.05,12.950000000000001,0)" xlink:href="#be"/><use transform="matrix(0.05,0,0,0.05,22.950000000000003,0)" xlink:href="#bi"/><use transform="matrix(0.05,0,0,0.05,32.95,0)" xlink:href="#bk"/><use transform="matrix(0.05,0,0,0.05,42.95,0)" xlink:href="#aO"/><use transform="matrix(0.05,0,0,0.05,47.95,0)" xlink:href="#aM"/></g><g id="Z"><use transform="matrix(0.05,0,0,0.05,0,0)" xlink:href="#aR"/><use transform="matrix(0.05,0,0,0.05,10.3,0)" xlink:href="#aS"/><use transform="matrix(0.05,0,0,0.05,14.25,0)" xlink:href="#aN"/><use transform="matrix(0.05,0,0,0.05,23.25,0)" xlink:href="#aT"/><use transform="matrix(0.05,0,0,0.05,32.25,0)" xlink:href="#aM"/><use transform="matrix(0.05,0,0,0.05,42.25,0)" xlink:href="#aO"/></g><g id="aa"><use transform="matrix(0.05,0,0,0.05,0,0)" xlink:href="#aV"/><use transform="matrix(0.05,0,0,0.05,12,0)" xlink:href="#aW"/><use transform="matrix(0.05,0,0,0.05,22,0)" xlink:href="#aO"/><use transform="matrix(0.05,0,0,0.05,27,0)" xlink:href="#aJ"/><use transform="matrix(0.05,0,0,0.05,32.95,0)" xlink:href="#bp"/></g><path fill="#333" d="M137 0h-34L2-248h35l83 218 83-218h36" id="br"/><g id="ab"><use transform="matrix(0.05,0,0,0.05,0,0)" xlink:href="#br"/><use transform="matrix(0.05,0,0,0.05,11.65,0)" xlink:href="#aS"/><use transform="matrix(0.05,0,0,0.05,15.600000000000001,0)" xlink:href="#aM"/><use transform="matrix(0.05,0,0,0.05,25.6,0)" xlink:href="#bq"/></g><g id="ac"><use transform="matrix(0.05,0,0,0.05,0,0)" xlink:href="#aI"/><use transform="matrix(0.05,0,0,0.05,12,0)" xlink:href="#aJ"/><use transform="matrix(0.05,0,0,0.05,17.95,0)" xlink:href="#aK"/><use transform="matrix(0.05,0,0,0.05,27.950000000000003,0)" xlink:href="#aL"/><use transform="matrix(0.05,0,0,0.05,31.899999999999995,0)" xlink:href="#aM"/><use transform="matrix(0.05,0,0,0.05,41.9,0)" xlink:href="#aN"/><use transform="matrix(0.05,0,0,0.05,50.9,0)" xlink:href="#aO"/><use transform="matrix(0.05,0,0,0.05,55.900000000000006,0)" xlink:href="#aP"/></g><g id="ad"><use transform="matrix(0.05,0,0,0.05,0,0)" xlink:href="#aR"/><use transform="matrix(0.05,0,0,0.05,10.3,0)" xlink:href="#aS"/><use transform="matrix(0.05,0,0,0.05,14.25,0)" xlink:href="#aN"/><use transform="matrix(0.05,0,0,0.05,23.25,0)" xlink:href="#aT"/><use transform="matrix(0.05,0,0,0.05,32.25,0)" xlink:href="#aM"/><use transform="matrix(0.05,0,0,0.05,42.25,0)" xlink:href="#aO"/><use transform="matrix(0.05,0,0,0.05,47.25,0)" xlink:href="#aP"/></g><g id="ae"><use transform="matrix(0.05,0,0,0.05,0,0)" xlink:href="#aV"/><use transform="matrix(0.05,0,0,0.05,12,0)" xlink:href="#aW"/><use transform="matrix(0.05,0,0,0.05,22,0)" xlink:href="#aO"/><use transform="matrix(0.05,0,0,0.05,27,0)" xlink:href="#aJ"/><use transform="matrix(0.05,0,0,0.05,32.95,0)" xlink:href="#aS"/><use transform="matrix(0.05,0,0,0.05,36.900000000000006,0)" xlink:href="#aM"/><use transform="matrix(0.05,0,0,0.05,46.900000000000006,0)" xlink:href="#aP"/></g></defs></g></svg>